<svg width="50" height="50" viewBox="0 0 50 50" fill="none" xmlns="http://www.w3.org/2000/svg">
<path d="M48.8965 21.7449C48.7305 21.7352 48.5742 21.7449 48.4082 21.7449C42.8906 21.7449 37.3828 21.7449 31.8652 21.7449C31.6895 21.7449 31.5137 21.7938 31.3379 21.7058C31.3965 21.5201 31.5527 21.4223 31.6797 21.305C35.459 17.5113 39.248 13.7275 43.0273 9.94362C43.8086 9.16143 43.6816 9.17121 44.4434 9.92407C44.5703 10.0512 44.6973 10.1783 44.8438 10.2761C45.3906 10.628 46.0352 10.4618 46.3574 9.90451C46.4453 9.74807 46.5137 9.58186 46.5625 9.40586C47.2754 6.73663 48.0078 4.05762 48.7012 1.38839C48.8867 0.684418 48.623 0.22488 47.9492 0C47.7539 0 47.5586 0 47.3633 0C47.0605 0.107551 46.7285 0.0782193 46.416 0.166216C44.8633 0.596422 43.3105 1.01685 41.748 1.4275C40.8789 1.66216 40.0195 1.87726 39.1602 2.1217C38.1348 2.41502 37.9004 3.32432 38.6426 4.09673C38.7598 4.21406 38.877 4.33139 38.9844 4.43894C39.4238 4.87893 39.4238 4.87893 38.9844 5.32869C35.7715 8.54545 32.5684 11.7524 29.3555 14.9692C28.9062 15.419 28.9063 15.419 28.4375 14.9497C25.5469 12.0555 22.666 9.17121 19.7754 6.27709C19.5801 6.08155 19.3945 5.87622 19.1504 5.73934C18.6621 5.46557 18.1738 5.50468 17.7539 5.87622C17.6074 6.00333 17.4707 6.14999 17.334 6.28687C12.3633 11.2342 7.38281 16.2109 2.43164 21.1974C2.05078 21.5787 1.66992 21.7938 1.11328 21.7743C0.46875 21.745 0.205078 21.9698 0 22.5663C0 31.493 0 40.4296 0 49.3563C0.126953 49.7866 0.380859 50.0505 0.859375 49.9919C16.9531 49.9919 33.0469 49.9919 49.1504 49.9919C49.6289 50.0505 49.8828 49.7866 50 49.3563C50 40.4296 50 31.493 50 22.5663C49.7949 21.9503 49.5508 21.7743 48.8965 21.7449ZM5.10742 21.4419C9.47266 17.0714 13.8379 12.7106 18.1836 8.33035C18.4668 8.0468 18.5938 8.02725 18.8867 8.32057C21.8848 11.3516 24.9121 14.363 27.9199 17.3842C28.6914 18.1566 29.1016 18.1566 29.8828 17.3745C33.6426 13.6101 37.4121 9.83607 41.1719 6.07177C42.2168 5.02559 42.2266 4.82026 41.2012 3.69586C42.9004 3.23632 44.5605 2.79634 46.2891 2.32702C45.8301 4.04785 45.3809 5.71978 44.9316 7.4015C43.6816 6.37487 43.623 6.38465 42.4707 7.5286C38.0664 11.9382 33.6523 16.3478 29.2578 20.777C28.9746 21.0605 28.8477 21.0801 28.5547 20.7868C25.5762 17.7753 22.5781 14.7834 19.5898 11.7916C18.7207 10.9214 18.3789 10.9311 17.5 11.8111C14.2578 15.0572 11.0059 18.3033 7.76367 21.5592C7.55859 21.7645 7.35352 21.8818 7.05078 21.8721C6.30859 21.8427 5.55664 21.8623 4.72656 21.8623C4.87305 21.6961 4.99023 21.5592 5.10742 21.4419ZM26.7773 21.8427C21.2891 21.8427 15.8105 21.8427 10.2344 21.8427C12.207 19.8677 14.1309 17.9513 16.0449 16.0252C16.8066 15.2625 17.5684 14.5097 18.3203 13.747C18.4668 13.6004 18.5547 13.5222 18.7402 13.7177C21.4062 16.4065 24.0918 19.0953 26.7676 21.7743C26.7676 21.7743 26.7676 21.7938 26.7773 21.8427ZM28.0469 40.6447C30.3223 40.6349 32.5977 40.6349 34.8828 40.6447C35.7324 40.6447 36.3379 41.2411 36.3379 42.0233C36.3281 42.8055 35.7227 43.3726 34.8633 43.3824C33.7207 43.3921 32.5879 43.3824 31.4453 43.3824C30.3223 43.3824 29.1992 43.3824 28.0762 43.3824C27.1875 43.3824 26.5723 42.7957 26.5723 42.0037C26.5723 41.2215 27.1777 40.6447 28.0469 40.6447ZM24.9609 39.0998C23.2324 39.0901 21.8457 37.7017 21.8359 35.9613C21.8262 34.2111 23.2324 32.7934 24.9902 32.8032C26.748 32.8032 28.1445 34.2014 28.1348 35.9613C28.1348 37.7115 26.7188 39.1096 24.9609 39.0998ZM34.7852 48.0755C33.6621 48.0755 32.5391 48.0755 31.416 48.0755C30.3125 48.0755 29.1992 48.0755 28.0957 48.0755C27.1973 48.0755 26.5723 47.5182 26.5625 46.7262C26.5527 45.9147 27.1777 45.3378 28.1055 45.3378C30.332 45.3378 32.5586 45.3378 34.7949 45.3378C35.7031 45.3378 36.3184 45.8951 36.3281 46.6871C36.3379 47.4986 35.7031 48.0657 34.7852 48.0755ZM46.5332 48.0755C45.3906 48.0853 44.2578 48.0755 43.1152 48.0755C42.0117 48.0755 40.8984 48.0755 39.7949 48.0755C38.8965 48.0755 38.2812 47.5084 38.2812 46.7067C38.2812 45.9049 38.8965 45.3378 39.7949 45.3378C42.041 45.3281 44.2871 45.3281 46.5332 45.3378C47.4316 45.3378 48.0469 45.9049 48.0469 46.7067C48.0469 47.4986 47.4219 48.0657 46.5332 48.0755ZM46.5137 43.3824C45.3906 43.3824 44.2676 43.3824 43.1445 43.3824C42.041 43.3824 40.9277 43.3824 39.8242 43.3824C38.8965 43.3824 38.2715 42.8153 38.2812 41.994C38.291 41.202 38.9062 40.6447 39.8145 40.6447C42.041 40.6447 44.2676 40.6447 46.5039 40.6447C47.4316 40.6447 48.0566 41.2118 48.0469 42.0233C48.0371 42.825 47.4219 43.3726 46.5137 43.3824ZM46.5137 38.6892C45.3906 38.6892 44.2676 38.6892 43.1445 38.6892C42.0215 38.6892 40.8984 38.6892 39.7754 38.6892C38.8867 38.6892 38.2715 38.1026 38.2812 37.3106C38.291 36.5284 38.8965 35.9613 39.7559 35.9613C42.0215 35.9515 44.2773 35.9515 46.543 35.9613C47.4316 35.9613 48.0469 36.5479 48.0371 37.3399C48.0371 38.1319 47.4121 38.6794 46.5137 38.6892ZM48.0469 34.2698C47.4707 34.0547 46.9043 33.9569 46.3184 33.996C45.9961 34.0156 46.0938 33.7907 46.0938 33.6343C46.084 32.5588 46.0938 31.4832 46.0938 30.4077C46.0938 29.6158 45.7715 29.2736 44.9902 29.2149C43.6914 29.1171 42.7637 28.198 42.666 26.8976C42.6074 26.1155 42.2656 25.783 41.4844 25.783C37.5098 25.783 33.5449 25.783 29.5703 25.783C28.8574 25.783 28.418 26.1643 28.418 26.7608C28.418 27.3572 28.8672 27.7385 29.5703 27.7385C33.1641 27.7385 36.7676 27.7483 40.3613 27.7287C40.6836 27.7287 40.8203 27.7972 40.9277 28.1296C41.3867 29.5375 42.3438 30.486 43.7402 30.9455C44.0723 31.053 44.1504 31.1899 44.1406 31.5126C44.1113 32.2166 44.1211 32.9108 44.1406 33.6147C44.1504 33.908 44.0723 33.996 43.7695 33.996C42.4707 33.9765 41.1621 34.0254 39.8633 33.9765C37.1875 33.8787 35.4785 36.6457 36.7383 38.9239C36.7773 38.9923 36.8164 39.0607 36.748 39.2074C35.7715 38.5523 34.6582 38.6892 33.5742 38.6794C32.1777 38.6696 30.7812 38.6794 29.3066 38.6794C30.166 37.1835 30.3223 35.6875 29.7559 34.1525C28.9258 31.8743 26.5039 30.4762 24.1504 30.8966C21.6699 31.3268 19.8926 33.4192 19.873 35.9222C19.8535 38.3568 21.5723 40.4785 23.9551 40.9478C24.1895 40.9967 24.502 40.9576 24.6484 41.0944C24.8145 41.2509 24.6094 41.5442 24.5996 41.7886C24.5605 42.649 24.8242 43.4117 25.3711 44.1645C25.166 44.1645 25.0195 44.1645 24.8828 44.1645C19.8047 44.1645 14.7266 44.1645 9.64844 44.1743C9.29688 44.1743 9.16992 44.0765 9.05273 43.7441C8.58398 42.3655 7.64648 41.4269 6.25977 40.9576C5.95703 40.8598 5.83008 40.762 5.83984 40.41C5.85938 37.4475 5.85938 34.4751 5.83984 31.5126C5.83984 31.2095 5.89844 31.0726 6.21094 30.965C7.63672 30.5055 8.59375 29.5375 9.0625 28.1198C9.16016 27.8167 9.28711 27.7385 9.59961 27.7385C13.1445 27.7483 16.6992 27.7483 20.2441 27.7483C20.4102 27.7483 20.5762 27.7581 20.7324 27.7385C21.2207 27.6603 21.582 27.2399 21.5723 26.751C21.5625 26.2621 21.1914 25.8612 20.6934 25.8026C20.5469 25.783 20.4004 25.7928 20.2539 25.7928C16.3965 25.7928 12.5391 25.7928 8.68164 25.7928C7.67578 25.7928 7.40234 26.0372 7.32422 27.0248C7.22656 28.1492 6.26953 29.1073 5.13672 29.2051C4.16992 29.2833 3.90625 29.5669 3.90625 30.5153C3.90625 34.1525 3.90625 37.7799 3.90625 41.4171C3.90625 42.3068 4.19922 42.6099 5.08789 42.6784C6.28906 42.7761 7.24609 43.7246 7.33398 44.9272C7.40234 45.8169 7.71484 46.12 8.59375 46.12C13.7891 46.12 18.9746 46.12 24.1699 46.1102C24.5215 46.1102 24.6875 46.1494 24.6289 46.5698C24.5508 47.0782 24.7266 47.5671 24.8926 48.0755C24.707 48.0755 24.541 48.0755 24.3848 48.0755C17.0801 48.0755 9.77539 48.0755 2.46094 48.0853C2.07031 48.0853 1.95312 48.0168 1.95312 47.5964C1.97266 39.8429 1.97266 32.0894 1.95312 24.3262C1.95312 23.8666 2.09961 23.8178 2.5 23.8178C17.5195 23.8275 32.5391 23.8275 47.5586 23.8178C47.9395 23.8178 48.0762 23.8764 48.0762 24.3066C48.0371 27.6114 48.0469 30.9162 48.0469 34.2698Z" fill="#56D7AF"/>
<path d="M13.125 36.9293C12.7051 36.9293 12.2852 36.939 11.8555 36.9293C11.2695 36.9097 10.8496 36.5088 10.8398 35.9711C10.8301 35.404 11.25 34.9933 11.875 34.9836C12.6855 34.9738 13.4961 34.9738 14.3066 34.9836C14.9023 34.9933 15.3125 35.3942 15.3223 35.9417C15.332 36.5088 14.9023 36.9195 14.2871 36.9293C13.9062 36.9293 13.5156 36.9293 13.125 36.9293Z" fill="#56D7AF"/>
<path d="M25.9766 26.7901C25.9668 27.3376 25.5078 27.7581 24.9512 27.7385C24.4238 27.7189 24.0137 27.2692 24.0234 26.7412C24.0332 26.223 24.4824 25.783 25 25.783C25.5371 25.7928 25.9863 26.2523 25.9766 26.7901Z" fill="#56D7AF"/>
</svg>
